# xmcd
#
# Track frame offsets:
#	150
#	25059
#	46730
#	78018
#	97605
#	119766
#	145005
#	164452
#	201305
#
# Disc length: 3025 seconds
#
# Revision: 1
# Processed by: cddbd v1.5PL3 Copyright (c) Steve Scherf et al.
# Submitted via: audiograbber 1.82.01
#
DISCID=680bcf09
DTITLE=Jonny Lang - 1999-01-08 - Bass Performance Hall,Fortworth TX - FM Broadc
DTITLE=ast - Disc 1
DYEAR=1900
DGENRE=
TTITLE0=Jonny Lang - Still Rainin'
TTITLE1=Jonny Lang - Good Mornin' Little School Girl
TTITLE2=Jonny Lang - A Quitter Never Wins
TTITLE3=Jonny Lang - The Levee
TTITLE4=Jonny Lang - Home In The Blues
TTITLE5=Jonny Lang - Darker Side
TTITLE6=Jonny Lang - Right Back
TTITLE7=Jonny Lang - There'S Gotta Be A Change
TTITLE8=Jonny Lang - Second Guessing
EXTD=
EXTT0=
EXTT1=
EXTT2=
EXTT3=
EXTT4=
EXTT5=
EXTT6=
EXTT7=
EXTT8=
PLAYORDER=
